# xmcd
#
# Track frame offsets:
#	150
#	12529
#	24570
#	37010
#	48577
#	60352
#	72041
#	83471
#	95857
#	108284
#	120262
#	133008
#	144255
#	158077
#	168211
#	181763
#	195932
#	209094
#	221615
#	234050
#	246333
#	257730
#	270825
#	284475
#	295154
#
# Disc length: 4083 seconds
#
# Revision: 1
# Processed by: cddbd v1.5.1PL2 Copyright (c) Steve Scherf et al.
# Submitted via: EasyCDDAExtractor 9.0.0.1
#
DISCID=590ff119
DTITLE=Various Artist - Cool, Cool Blues, The Classic Sides (1951-54) - Disc 
DTITLE=B (Jackson, MS)
DYEAR=2006
DGENRE=Blues
TTITLE0=Big Joe Williams - Mama Don't Allow Me
TTITLE1=Big Joe Williams - Delta Blues
TTITLE2=Big Joe Williams - Overhauling Blues
TTITLE3=Big Joe Williams - Whistling Pines
TTITLE4=Big Joe Williams - Friends And Pals
TTITLE5=Big Joe Williams - Juanita
TTITLE6=Big Joe Williams - She Left Me A Mule
TTITLE7=Big Joe Williams - Bad Heart Blues
TTITLE8=Luther Huff - Dirty Disposition
TTITLE9=Luther Huff - 1951 Blues
TTITLE10=Luther Huff - Bull Dog Blues
TTITLE11=Luther Huff - Rosalee
TTITLE12=Arthur 'Big Boy' Crudup - My Baby Boogies All The Time
TTITLE13=Arthur 'Big Boy' Crudup - I Wonder
TTITLE14=Arthur 'Big Boy' Crudup - Gotta Find My Baby
TTITLE15=Arthur 'Big Boy' Crudup - Make A Little Love
TTITLE16=Bobo Thomas - Catfish Blues
TTITLE17=Elmore James - Dust My Broom
TTITLE18=Jerry McCain - East Of The Sun
TTITLE19=Jerry McCain - Wine-O-Wine
TTITLE20=Jerry McCain - Stay Out Of Automobiles
TTITLE21=Jerry McCain - Middle Of The Night
TTITLE22=Jerry McCain - Love To Make Up
TTITLE23=Jerry McCain - Crazy 'Bout That Mess
TTITLE24=Jerry McCain - Fall Guy
EXTD=YEAR: 2006
EXTT0=
EXTT1=
EXTT2=
EXTT3=
EXTT4=
EXTT5=
EXTT6=
EXTT7=
EXTT8=
EXTT9=
EXTT10=
EXTT11=
EXTT12=
EXTT13=
EXTT14=
EXTT15=
EXTT16=
EXTT17=
EXTT18=
EXTT19=
EXTT20=
EXTT21=
EXTT22=
EXTT23=
EXTT24=
PLAYORDER=
